<?xml version="1.0" encoding="UTF-8"?><svg id="Layer_2" xmlns="http://www.w3.org/2000/svg" viewBox="0 0 54.03 16.53"><defs><style>.cls-1{fill:#fec;}.cls-2{fill:#16110d;}</style></defs><g id="content"><path class="cls-1" d="m46.68,1.83h-1.79c-1.4,0-2.71.4-3.82,1.08-.91-.44-1.94-.7-3.02-.7H8.57c-3.85,0-6.96,3.12-6.96,6.96s3.12,6.96,6.96,6.96h29.48c1.08,0,2.11-.25,3.02-.7,1.12.68,2.42,1.08,3.82,1.08h1.79c4.05,0,7.35-3.3,7.35-7.35s-3.3-7.35-7.35-7.35Zm0,13.93h-1.79c-1.1,0-2.13-.27-3.04-.75,1.9-1.24,3.16-3.39,3.16-5.83s-1.26-4.58-3.16-5.83c.91-.48,1.94-.75,3.04-.75h1.79c3.63,0,6.58,2.95,6.58,6.58s-2.95,6.58-6.58,6.58Z"/><path class="cls-2" d="m45.08,14.7h-1.79c-4.05,0-7.35-3.3-7.35-7.35s3.3-7.35,7.35-7.35h1.79c4.05,0,7.35,3.3,7.35,7.35s-3.3,7.35-7.35,7.35Zm-1.79-13.93c-3.63,0-6.58,2.95-6.58,6.58s2.95,6.58,6.58,6.58h1.79c3.63,0,6.58-2.95,6.58-6.58s-2.95-6.58-6.58-6.58h-1.79Z"/><path class="cls-2" d="m36.44,14.32H6.96c-3.85,0-6.96-3.12-6.96-6.96h0C0,3.5,3.12.39,6.96.39h29.48c3.85,0,6.96,3.12,6.96,6.96h0c0,3.85-3.12,6.96-6.96,6.96Z"/><path class="cls-1" d="m6.99,9.18c-.11,0-.16-.06-.16-.16v-3.34c0-.11.06-.16.16-.16h.05c.11,0,.16.06.16.16v3.14h1.53c.11,0,.16.06.16.16v.03c0,.11-.06.16-.16.16h-1.74Z"/><path class="cls-1" d="m12.79,7.32c0,1.05-.86,1.9-1.91,1.9s-1.91-.85-1.91-1.9.86-1.86,1.91-1.86,1.91.85,1.91,1.86Zm-.39,0c0-.81-.67-1.48-1.52-1.48s-1.52.68-1.52,1.48c0,.85.67,1.53,1.52,1.53s1.52-.68,1.52-1.53Z"/><path class="cls-1" d="m13.12,7.32c0-1.01.86-1.86,1.92-1.86.63,0,1.16.3,1.51.76.08.11.03.2-.11.2h-.06c-.09,0-.14-.03-.2-.09-.28-.3-.69-.49-1.14-.49-.85,0-1.53.68-1.53,1.48,0,.85.68,1.53,1.53,1.53.54,0,1.01-.28,1.28-.7v-.66c0-.11.06-.16.16-.16h.05c.11,0,.16.06.16.16v1.53c0,.11-.06.16-.16.16h-.05c-.11,0-.16-.06-.16-.16v-.28c-.34.31-.79.49-1.28.49-1.05,0-1.92-.85-1.92-1.9Z"/><path class="cls-1" d="m21.05,7.32c0,1.05-.86,1.9-1.91,1.9s-1.91-.85-1.91-1.9.86-1.86,1.91-1.86,1.91.85,1.91,1.86Zm-.39,0c0-.81-.67-1.48-1.52-1.48s-1.52.68-1.52,1.48c0,.85.67,1.53,1.52,1.53s1.52-.68,1.52-1.53Z"/><path class="cls-1" d="m22.48,9.18c-.11,0-.16-.06-.16-.16v-3.14h-1.08c-.11,0-.16-.06-.16-.16v-.03c0-.11.06-.16.16-.16h2.53c.11,0,.16.06.16.16v.03c0,.11-.06.16-.16.16h-1.07v3.14c0,.11-.06.16-.16.16h-.05Z"/><path class="cls-1" d="m25.03,9.18c-.12,0-.16-.08-.11-.2l.43-.88-1.18-2.4c-.05-.11,0-.2.12-.2h.06c.09,0,.15.04.19.12l1.01,2.07,1.01-2.07c.04-.08.1-.12.19-.12h.06c.13,0,.17.08.12.2l-1.64,3.35c-.04.08-.1.12-.19.12h-.07Z"/><path class="cls-1" d="m28.64,5.51c.7,0,1.17.46,1.17,1.14s-.47,1.14-1.17,1.14h-.83v1.22c0,.11-.06.16-.16.16h-.05c-.11,0-.16-.06-.16-.16v-3.34c0-.11.06-.16.16-.16h1.04Zm0,1.92c.47,0,.78-.31.78-.78s-.31-.78-.78-.78h-.83v1.56h.83Z"/><path class="cls-1" d="m30.54,9.18c-.11,0-.16-.06-.16-.16v-3.34c0-.11.06-.16.16-.16h1.8c.11,0,.16.06.16.16v.03c0,.11-.06.16-.16.16h-1.59v1.03h1.49c.11,0,.16.06.16.16v.03c0,.11-.06.16-.16.16h-1.49v1.56h1.59c.11,0,.16.06.16.16v.03c0,.11-.06.16-.16.16h-1.8Z"/><path class="cls-1" d="m36.71,7.35c0-2.53,1.44-4.73,3.54-5.83-.25-.16-.51-.31-.78-.44-2.11,1.29-3.53,3.61-3.53,6.27s1.42,4.97,3.53,6.27c.27-.13.53-.28.78-.44-2.1-1.1-3.54-3.3-3.54-5.83Z"/></g></svg>